<svg id="svg-source" height="0" version="1.1" 
  xmlns="http://www.w3.org/2000/svg" style="position:absolute; margin-left: -100%" 
  xmlns:xlink="http://www.w3.org/1999/xlink">
  <g id="git" data-iconmelon="Iconmelon:c88d710192f240e49b7f92912997850e">
    <path fill="#40B7AE" d="M16.176,31.751c4.82,0,8.764-3.196,9.08-7.242H7.096C7.413,28.555,11.355,31.751,16.176,31.751z"></path>
    <g opacity="0.1">
      <path fill="#FFFFFF" d="M20.893,30.672c-0.006-0.014-0.013-0.026-0.019-0.04c-0.004,0.003-0.009,0.005-0.013,0.007
		C20.871,30.65,20.883,30.66,20.893,30.672z"></path>
      <path fill="#FFFFFF" d="M25.251,24.514h-0.009c0,0.021,0,0.041,0,0.062C25.244,24.555,25.25,24.534,25.251,24.514z"></path>
      <path fill="#FFFFFF" d="M22.508,26.766c0.229,0.683,0.398,1.385,0.518,2.093c0.012,0.07,0.012,0.143,0.022,0.213
		c1.243-1.224,2.045-2.781,2.194-4.496c0-0.021,0-0.041,0-0.062h-3.72c0.057,0.107,0.123,0.21,0.177,0.319
		C22.015,25.456,22.289,26.103,22.508,26.766z"></path>
      <path fill="#FFFFFF" d="M19.32,29.158c-0.924-0.711-2-1.235-3.148-1.456c-0.725-0.141-1.47-0.167-2.205-0.086
		c-0.899,0.095-1.779,0.34-2.614,0.681c0.606-0.061,1.221-0.063,1.825,0.027c0.505,0.074,1.002,0.21,1.473,0.41
		c0.917,0.383,1.719,0.993,2.427,1.682c0.379,0.366,0.73,0.756,1.081,1.146c0.969-0.185,1.878-0.499,2.702-0.924
		C20.395,30.1,19.888,29.593,19.32,29.158z"></path>
      <path fill="#FFFFFF" d="M15.433,31.05c-0.008-0.012-0.023-0.034-0.032-0.045c0.078,0.246,0.167,0.488,0.258,0.729
		c0.093,0.005,0.185,0.01,0.278,0.012C15.759,31.521,15.59,31.29,15.433,31.05z"></path>
      <path fill="#FFFFFF" d="M13.057,25.795c0.88,0.164,1.765,0.308,2.632,0.528c0.622,0.16,1.237,0.362,1.815,0.645
		c0.494,0.239,0.961,0.538,1.379,0.896c0.373,0.315,0.707,0.677,1.002,1.067c0.321,0.429,0.6,0.89,0.836,1.372
		c0.054,0.108,0.106,0.218,0.153,0.329c0.628-0.324,1.205-0.712,1.722-1.152c-0.115-0.415-0.238-0.829-0.379-1.236
		c-0.308-0.895-0.676-1.768-1.115-2.604c-0.201-0.384-0.42-0.759-0.648-1.126h-2.55c0.124,0.318,0.243,0.639,0.346,0.964
		c-0.122-0.088-0.243-0.178-0.37-0.264c-0.384-0.264-0.791-0.49-1.207-0.7H8.873c0.443,0.225,0.899,0.426,1.369,0.587
		C11.157,25.416,12.106,25.618,13.057,25.795z"></path>
      <path fill="#FFFFFF" d="M12.222,26.922c0.104-0.012,0.207-0.019,0.309-0.038c-0.413-0.039-0.824-0.093-1.229-0.181
		c-1.553-0.324-3.019-1.06-4.202-2.118c0.034,0.38,0.105,0.75,0.201,1.112c0.245,0.326,0.512,0.637,0.839,0.88
		c0.093,0.072,0.194,0.131,0.292,0.194c-0.211,0.083-0.407,0.195-0.601,0.312c0.126,0.248,0.266,0.49,0.421,0.724
		c0.616-0.235,1.254-0.418,1.898-0.556C10.835,27.106,11.528,27.004,12.222,26.922z"></path>
      <path fill="#FFFFFF" d="M12.986,30.213c-0.216-0.195-0.467-0.354-0.742-0.451c-0.382-0.14-0.799-0.167-1.2-0.115
		c-0.271,0.034-0.531,0.124-0.777,0.243c1.036,0.756,2.271,1.315,3.633,1.614c-0.165-0.325-0.343-0.642-0.572-0.927
		C13.225,30.445,13.109,30.325,12.986,30.213z"></path>
      <path fill="#FFFFFF" d="M9.595,28.736c-0.212-0.032-0.426-0.034-0.64-0.023c0.076,0.085,0.155,0.167,0.235,0.248
		C9.323,28.882,9.454,28.798,9.595,28.736z"></path>
    </g>
    <path fill="#F39C9E" d="M25.25,24.503c0-1.737-4.064-3.155-9.077-3.155s-9.076,1.418-9.076,3.155c0,1.75,4.064,3.168,9.076,3.168
	C21.186,27.671,25.25,26.253,25.25,24.503z"></path>
    <path fill="#E9437F" d="M24.303,24.357c0-1.477-3.641-2.682-8.129-2.682c-4.489,0-8.129,1.205-8.129,2.682
	c0,1.486,3.64,2.69,8.129,2.69C20.662,27.049,24.303,25.846,24.303,24.357z"></path>
    <path fill="#3C3C3B" d="M21.541,24.598c0,0,0.497-0.226,0.82-0.142c0.334,0.086,0.168,0.377-0.197,0.303
	c0.338,0.112,0.102,0.38-0.232,0.294C21.607,24.969,21.541,24.598,21.541,24.598z"></path>
    <g>
      <path fill="#3C3C3B" d="M16.104,26.333l0.012-0.013c0.042-0.043,0.138-0.096,0.214-0.115l0.102-0.025
		c0.166-0.044,0.231-0.176,0.145-0.295c-0.086-0.121-0.29-0.183-0.456-0.14c-0.001,0-0.103,0.026-0.103,0.026
		c-0.077,0.021-0.206,0.025-0.287,0.015l-0.024-0.004c-0.081-0.011-0.122,0.017-0.087,0.062l0.349,0.483
		C16.001,26.374,16.063,26.376,16.104,26.333z"></path>
      <path fill="#3C3C3B" d="M15.614,26.134c0.04,0.054,0.124,0.085,0.197,0.076l-0.154-0.214
		C15.595,26.021,15.575,26.079,15.614,26.134z"></path>
    </g>
    <path fill="#3C3C3B" d="M19.816,25.689v-0.045c0-0.004,0.002-0.006,0.002-0.008c0.014-0.003,0.022-0.006,0.037-0.009
	c0.002,0.001,0.006,0.002,0.009,0.004l0.054,0.032c0.025,0.018,0.068,0.018,0.096,0l0.092-0.057c0.025-0.015,0.025-0.041,0-0.056
	l-0.055-0.032c-0.002-0.002-0.006-0.004-0.007-0.006c0.005-0.007,0.011-0.015,0.015-0.021c0.004,0,0.008,0,0.014,0h0.074
	c0.037,0,0.067-0.018,0.067-0.04v-0.078c0-0.022-0.03-0.04-0.067-0.04h-0.074c-0.006,0-0.01,0-0.014-0.001
	c-0.006-0.008-0.01-0.015-0.015-0.021c0.001-0.002,0.005-0.004,0.007-0.006l0.055-0.033c0.025-0.016,0.025-0.041,0-0.056
	l-0.092-0.057c-0.027-0.017-0.068-0.017-0.096,0l-0.054,0.032c-0.003,0.002-0.007,0.004-0.009,0.006
	c-0.015-0.004-0.023-0.008-0.037-0.01c0-0.002-0.002-0.004-0.002-0.008v-0.046c0-0.021-0.029-0.038-0.065-0.038h-0.132
	c-0.036,0-0.066,0.017-0.066,0.038v0.046c0,0.004,0,0.006-0.002,0.008c-0.012,0.002-0.023,0.006-0.037,0.01
	c-0.002-0.001-0.005-0.004-0.008-0.006l-0.056-0.032c-0.024-0.017-0.067-0.017-0.093,0l-0.094,0.057
	c-0.025,0.017-0.025,0.04,0,0.056l0.055,0.033c0.004,0.002,0.006,0.004,0.008,0.006c-0.006,0.006-0.012,0.015-0.016,0.021
	c-0.004,0.001-0.009,0.001-0.013,0.001h-0.077c-0.035,0-0.066,0.018-0.066,0.04v0.078c0,0.022,0.031,0.04,0.066,0.04h0.077
	c0.004,0,0.009,0,0.013,0c0.004,0.008,0.01,0.016,0.016,0.021c-0.002,0.002-0.004,0.004-0.008,0.006l-0.055,0.032
	c-0.025,0.017-0.025,0.041,0,0.056l0.094,0.057c0.024,0.018,0.067,0.018,0.093,0l0.056-0.032c0.003-0.002,0.006-0.003,0.008-0.004
	c0.014,0.003,0.025,0.006,0.037,0.009c0.002,0.002,0.002,0.004,0.002,0.008v0.045c0,0.022,0.03,0.041,0.066,0.041h0.132
	C19.787,25.73,19.816,25.713,19.816,25.689z M19.486,25.414c0-0.064,0.088-0.118,0.197-0.118c0.108,0,0.198,0.054,0.198,0.118
	s-0.09,0.119-0.198,0.119C19.574,25.533,19.486,25.479,19.486,25.414z"></path>
    <path fill="#3C3C3B" d="M16.109,22.757v-0.046c0-0.003,0.001-0.006,0.001-0.007c0.014-0.003,0.024-0.006,0.037-0.011
	c0.003,0.002,0.007,0.004,0.01,0.006l0.054,0.031c0.026,0.017,0.068,0.017,0.094,0l0.093-0.056c0.025-0.016,0.025-0.041,0-0.056
	l-0.055-0.032c-0.002-0.002-0.006-0.005-0.007-0.006c0.005-0.007,0.01-0.015,0.014-0.022c0.003,0,0.007,0,0.013,0h0.076
	c0.037,0,0.067-0.018,0.067-0.039v-0.08c0-0.021-0.03-0.039-0.067-0.039h-0.076c-0.006,0-0.01,0-0.013,0
	c-0.005-0.008-0.01-0.017-0.014-0.022c0.001-0.001,0.004-0.003,0.007-0.005l0.055-0.032c0.025-0.016,0.025-0.041,0-0.056
	l-0.093-0.057c-0.025-0.017-0.068-0.017-0.094,0l-0.054,0.033c-0.003,0.002-0.006,0.002-0.01,0.004
	c-0.013-0.004-0.023-0.007-0.037-0.01c0-0.002-0.001-0.005-0.001-0.007v-0.046c0-0.021-0.03-0.04-0.066-0.04h-0.132
	c-0.036,0-0.066,0.019-0.066,0.04v0.046c0,0.002,0,0.005-0.001,0.007c-0.012,0.003-0.023,0.006-0.037,0.01
	c-0.002-0.002-0.006-0.002-0.009-0.004l-0.055-0.033c-0.024-0.017-0.067-0.017-0.093,0l-0.093,0.057
	c-0.026,0.016-0.026,0.04,0,0.056l0.055,0.032c0.003,0.002,0.006,0.004,0.007,0.005c-0.006,0.008-0.01,0.017-0.015,0.022
	c-0.003,0-0.008,0-0.012,0h-0.077c-0.036,0-0.066,0.018-0.066,0.039v0.08c0,0.021,0.03,0.039,0.066,0.039h0.077
	c0.004,0,0.009,0,0.012,0c0.004,0.008,0.01,0.017,0.015,0.022c-0.001,0.001-0.004,0.003-0.007,0.006l-0.055,0.032
	c-0.026,0.016-0.026,0.04,0,0.056l0.093,0.056c0.026,0.017,0.069,0.017,0.093,0l0.055-0.031c0.003-0.002,0.006-0.004,0.009-0.006
	c0.013,0.005,0.024,0.008,0.037,0.011c0.001,0.001,0.001,0.004,0.001,0.007v0.046c0,0.022,0.031,0.04,0.066,0.04h0.132
	C16.08,22.797,16.109,22.779,16.109,22.757z M15.778,22.479c0-0.063,0.088-0.117,0.198-0.117c0.109,0,0.198,0.054,0.198,0.117
	c0,0.066-0.089,0.119-0.198,0.119C15.867,22.6,15.778,22.546,15.778,22.479z"></path>
    <path fill="#3C3C3B" d="M10.752,24.665c0.001-0.003,0.001-0.005,0.002-0.006c0.001-0.002,0.001-0.005,0.001-0.007
	c0.073-0.166-0.096-0.338-0.373-0.381c-0.277-0.043-1,0.172-1,0.172s0.456,0.4,0.731,0.445
	C10.39,24.932,10.678,24.832,10.752,24.665z M9.983,24.539c0.036-0.087,0.182-0.139,0.324-0.114c0.143,0.021,0.228,0.108,0.19,0.193
	s-0.183,0.137-0.324,0.114C10.031,24.711,9.946,24.623,9.983,24.539z"></path>
    <path fill="#3C3C3B" d="M12.61,25.641c0.001,0.049-0.03,0.076-0.068,0.103c0.002,0.021,0.023,0.05,0.038,0.065
	c0.004,0.006,0.01,0.01,0.014,0.017c-0.042-0.009-0.077-0.021-0.102-0.041c-0.005-0.005-0.013-0.009-0.017-0.015l0,0
	c0,0.027,0.021,0.051,0.033,0.073l0,0c-0.03-0.013-0.062-0.026-0.084-0.044c-0.009-0.007-0.018-0.014-0.027-0.021
	c-0.05,0-0.098,0-0.14-0.006c-0.245-0.032-0.411-0.119-0.482-0.254c-0.026-0.05-0.036-0.127-0.013-0.184
	c0.012-0.027,0.025-0.055,0.042-0.077c0.009-0.013,0.02-0.024,0.032-0.036c0.004-0.004,0.007-0.008,0.012-0.012
	c-0.001,0.014-0.007,0.027-0.002,0.042c0.003,0.013,0.002,0.024,0.006,0.036c0.011,0.029,0.025,0.056,0.047,0.078
	c0.011,0.011,0.023,0.027,0.039,0.035c0-0.016,0.005-0.028,0.012-0.039c0.025-0.041,0.07-0.066,0.139-0.082
	c-0.002,0.013-0.008,0.05,0.004,0.059c0.001-0.018,0.017-0.031,0.029-0.043c0.036-0.034,0.095-0.062,0.187-0.061
	c-0.003,0.004-0.008,0.009-0.011,0.014c-0.006,0.007-0.009,0.016-0.013,0.025c-0.001,0.004-0.006,0.014-0.003,0.019v-0.001
	c0.013-0.007,0.021-0.018,0.035-0.023c0.046-0.021,0.116-0.041,0.198-0.028c0.021,0.003,0.04,0.009,0.057,0.014l0,0
	c-0.009,0.003-0.015,0.009-0.023,0.013c-0.023,0.012-0.043,0.024-0.062,0.039c-0.062,0.047-0.101,0.09-0.128,0.157
	c-0.007,0.019-0.013,0.038-0.013,0.06c0.028-0.006,0.076-0.004,0.103,0c0.069,0.013,0.119,0.037,0.146,0.074
	c0.006,0.008,0.011,0.019,0.014,0.027C12.608,25.629,12.609,25.635,12.61,25.641z"></path>
    <path fill="#3C3C3B" d="M21.988,23.285c0-0.176-0.191-0.317-0.428-0.317c-0.129,0-0.244,0.042-0.322,0.106
	c-0.031,0.007-0.064,0.004-0.11-0.012c-0.051-0.019-0.094-0.051-0.128-0.096c0.014,0.112,0.062,0.209,0.137,0.266
	c-0.004,0.017-0.006,0.033-0.006,0.053c0,0.175,0.191,0.314,0.43,0.314C21.797,23.602,21.988,23.46,21.988,23.285"></path>
    <path fill="#3C3C3B" d="M11.153,23.197V23.15c0-0.002,0-0.004,0-0.006c0.014-0.004,0.025-0.006,0.037-0.01
	c0.003,0.001,0.007,0.004,0.009,0.004l0.055,0.033c0.026,0.016,0.068,0.016,0.094,0l0.093-0.057c0.025-0.016,0.025-0.041,0-0.057
	l-0.054-0.031c-0.003-0.002-0.006-0.004-0.007-0.006c0.005-0.008,0.01-0.016,0.014-0.022c0.003,0,0.007,0,0.013,0h0.076
	c0.037,0,0.067-0.019,0.067-0.039v-0.079c0-0.021-0.03-0.04-0.067-0.04h-0.076c-0.005,0-0.009,0-0.013-0.001
	c-0.005-0.007-0.01-0.015-0.014-0.021c0.001,0,0.004-0.004,0.007-0.004l0.054-0.033c0.025-0.016,0.025-0.041,0-0.057l-0.093-0.057
	c-0.026-0.016-0.068-0.016-0.094,0L11.2,22.702c-0.002,0.002-0.006,0.004-0.009,0.005c-0.012-0.003-0.023-0.007-0.037-0.009
	c0-0.003,0-0.005,0-0.009v-0.045c0-0.021-0.03-0.039-0.066-0.039h-0.132c-0.036,0-0.067,0.017-0.067,0.039v0.045
	c0,0.004,0,0.006-0.001,0.009c-0.012,0.002-0.024,0.006-0.037,0.009c-0.002-0.001-0.005-0.003-0.009-0.005l-0.055-0.033
	c-0.024-0.017-0.067-0.017-0.093,0L10.6,22.727c-0.026,0.016-0.026,0.039,0,0.056l0.054,0.032c0.003,0.002,0.006,0.004,0.007,0.006
	c-0.006,0.008-0.01,0.015-0.014,0.021c-0.004,0.001-0.008,0.001-0.012,0.001h-0.078c-0.036,0-0.066,0.018-0.066,0.04v0.079
	c0,0.021,0.03,0.039,0.066,0.039h0.078c0.004,0,0.008,0,0.012,0c0.004,0.008,0.009,0.016,0.014,0.021
	c-0.001,0.002-0.004,0.004-0.007,0.006L10.6,23.061c-0.026,0.017-0.026,0.041,0,0.057l0.093,0.057c0.026,0.016,0.069,0.016,0.093,0
	l0.055-0.033c0.003,0,0.006-0.002,0.009-0.004c0.013,0.004,0.024,0.006,0.037,0.01c0.001,0.002,0.001,0.004,0.001,0.006v0.047
	c0,0.021,0.031,0.041,0.067,0.041h0.132C11.123,23.238,11.153,23.221,11.153,23.197z M10.822,22.921
	c0-0.065,0.088-0.118,0.199-0.118c0.109,0,0.198,0.053,0.198,0.118s-0.089,0.119-0.198,0.119
	C10.91,23.04,10.822,22.986,10.822,22.921z"></path>
    <path fill="#202020" d="M8.035,0.278C8.46,0.204,8.892,0.284,9.304,0.394c1.042,0.295,1.982,0.855,2.879,1.448
	c1.724-0.475,3.54-0.593,5.317-0.412c0.621,0.067,1.24,0.171,1.848,0.326c0.779-0.51,1.594-0.984,2.48-1.28
	c0.492-0.158,1.018-0.283,1.537-0.198c0.469,1.174,0.621,2.505,0.256,3.729c0.508,0.511,0.936,1.106,1.23,1.765
	c0.369,0.814,0.53,1.713,0.522,2.605c-0.006,1.092-0.062,2.198-0.349,3.258c2.33-0.089,4.681,0.015,6.974,0.465
	c-0.006,0.03-0.019,0.09-0.022,0.12c-2.297-0.45-4.65-0.553-6.986-0.46c-0.061,0.192-0.124,0.382-0.199,0.569
	c2.412,0.08,4.828,0.365,7.156,1.014c-0.008,0.029-0.024,0.087-0.032,0.117c-2.335-0.646-4.758-0.934-7.177-1.009
	c-0.242,0.548-0.581,1.056-1.014,1.472c-0.605,0.588-1.367,0.992-2.158,1.269c-0.961,0.333-1.969,0.512-2.979,0.606
	c-1.104,0.047-2.209,0.043-3.315,0.041c-0.44-0.007-0.881-0.004-1.321-0.032c-0.258-0.041-0.521,0.004-0.778-0.039
	c-1.371-0.174-2.754-0.494-3.957-1.199c-0.862-0.501-1.59-1.233-2.059-2.115c-2.383,0.082-4.771,0.368-7.072,1.006
	c-0.008-0.029-0.024-0.088-0.032-0.117c2.291-0.639,4.667-0.924,7.041-1.01C7,12.141,6.916,11.948,6.839,11.751
	c-2.279-0.081-4.575,0.028-6.816,0.467c-0.005-0.03-0.017-0.09-0.022-0.12c2.233-0.439,4.521-0.548,6.792-0.472
	c-0.296-0.852-0.43-1.753-0.467-2.652C6.295,8.331,6.3,7.679,6.435,7.046c0.205-1.038,0.72-2.003,1.438-2.777
	C7.39,2.984,7.533,1.534,8.035,0.278 M10.606,7.814c-0.5,0.221-0.888,0.627-1.212,1.056c-0.369,0.506-0.637,1.117-0.628,1.752
	c-0.021,0.89,0.152,1.821,0.672,2.561c0.446,0.644,1.131,1.085,1.857,1.353c1.024,0.38,2.123,0.499,3.207,0.557
	c1.026,0.048,2.055,0.036,3.081,0.012c1.036-0.039,2.09-0.111,3.076-0.453c0.672-0.231,1.303-0.637,1.711-1.229
	c0.479-0.684,0.653-1.532,0.69-2.354c0-0.171,0.032-0.346-0.006-0.516c0.014-0.561-0.229-1.1-0.531-1.561
	c-0.369-0.522-0.834-1.018-1.446-1.245c-0.675-0.256-1.41-0.263-2.121-0.229c-0.517,0.001-1.029,0.066-1.543,0.089
	c-1.011,0.078-2.028,0.074-3.037,0c-0.741-0.047-1.481-0.117-2.225-0.092C11.625,7.519,11.09,7.6,10.606,7.814z"></path>
    <path fill="#202020" d="M5.689,15.222c0.281-0.113,0.597-0.088,0.885-0.022c0.561,0.138,1.05,0.49,1.416,0.93
	c0.227,0.265,0.375,0.587,0.598,0.854c0.385,0.49,0.934,0.859,1.552,0.971c0.687,0.132,1.391-0.033,2.024-0.305
	c-0.023,0.082-0.042,0.164-0.057,0.248c-0.125,0.006-0.301,0.035-0.317,0.189c-0.003,0.146,0.168,0.163,0.275,0.186
	c-0.021,0.371-0.023,0.744,0.025,1.11c-0.826,0.159-1.701,0.222-2.513-0.046c-0.674-0.215-1.256-0.674-1.656-1.254
	c-0.332-0.475-0.552-1.023-0.932-1.466c-0.237-0.284-0.541-0.507-0.872-0.668c-0.211-0.115-0.45-0.228-0.571-0.447
	C5.481,15.386,5.578,15.261,5.689,15.222 M6.766,15.525c-0.169,0.155,0.227,0.372,0.293,0.164
	C7.059,15.552,6.881,15.466,6.766,15.525 M7.334,15.876c-0.246,0.104,0.092,0.482,0.259,0.308
	C7.671,16.032,7.49,15.852,7.334,15.876 M7.836,16.465c-0.202,0.146,0.064,0.54,0.278,0.406C8.254,16.705,8.042,16.392,7.836,16.465
	 M8.358,17.204c-0.143,0.192,0.146,0.511,0.352,0.387C8.879,17.4,8.563,17.055,8.358,17.204 M9.042,17.855
	c-0.19,0.231,0.316,0.52,0.439,0.259C9.517,17.9,9.211,17.736,9.042,17.855 M9.972,18.136c-0.092,0.031-0.136,0.155-0.066,0.23
	c0.113,0.144,0.415,0.172,0.483-0.026C10.391,18.143,10.126,18.066,9.972,18.136 M10.974,18.157
	c-0.072,0.028-0.142,0.103-0.121,0.187c0.079,0.217,0.499,0.199,0.52-0.044C11.336,18.131,11.111,18.098,10.974,18.157z"></path>
    <path fill="#202020" d="M12.795,16.384c0.558-0.21,1.157-0.26,1.747-0.292c0.77-0.038,1.542-0.049,2.312-0.025
	c0.767,0.039,1.595,0.158,2.191,0.685c0.325,0.271,0.514,0.656,0.725,1.014c0.047,0.232,0.054,0.474,0.061,0.709
	c0.002,1.026,0,2.053,0.002,3.077c0.02,0.416-0.062,0.851,0.096,1.248c0.129,0.351,0.375,0.668,0.719,0.826
	c0.15,0.065,0.308,0.161,0.355,0.327c0.027,0.083-0.027,0.162-0.072,0.227c-0.098,0.045-0.201,0.082-0.31,0.08
	c-0.423,0.002-0.851-0.057-1.244-0.212c-0.308-0.125-0.593-0.321-0.782-0.598c-0.193-0.278-0.273-0.619-0.279-0.953
	c-0.006-0.377,0-0.754-0.002-1.131c0-0.608,0-1.218,0-1.824c0-0.319-0.028-0.64-0.112-0.946c-0.066-0.229-0.159-0.466-0.353-0.617
	c-0.024,1.115-0.004,2.233-0.012,3.352c0,0.659,0.004,1.318-0.002,1.979c-0.008,0.394,0.018,0.809,0.216,1.157
	c0.087,0.163,0.253,0.255,0.392,0.366c0.059,0.104,0.104,0.227,0.059,0.343c-0.032,0.097-0.123,0.15-0.207,0.196
	c-0.079,0.018-0.159,0.027-0.238,0.037c-0.455-0.062-0.896-0.242-1.259-0.526c-0.228-0.185-0.412-0.425-0.508-0.702
	c-0.082-0.225-0.095-0.466-0.093-0.701c0.006-0.734,0.001-1.471,0.003-2.205c-0.003-1.162,0.006-2.322,0.001-3.484
	c0.018-0.152-0.137-0.273-0.281-0.219c-0.117,0.027-0.121,0.164-0.12,0.26c0.004,1.148-0.001,2.299-0.001,3.447
	c0,0.705-0.001,1.412,0,2.117c0.033,0.549-0.149,1.125-0.582,1.482c-0.411,0.342-0.942,0.533-1.475,0.539l-0.02-0.009
	c-0.08-0.04-0.176-0.072-0.212-0.162c-0.064-0.14-0.007-0.294,0.064-0.418c0.14-0.123,0.323-0.199,0.423-0.362
	c0.147-0.229,0.164-0.51,0.168-0.771c0-0.781,0-1.562,0-2.344c-0.007-1.138,0.013-2.273-0.01-3.41
	c-0.361,0.267-0.413,0.76-0.456,1.172c-0.023,0.761-0.004,1.521-0.011,2.279c-0.001,0.369,0.003,0.738-0.001,1.107
	c-0.005,0.325-0.082,0.656-0.265,0.93c-0.186,0.284-0.473,0.487-0.784,0.615c-0.471,0.189-0.988,0.238-1.492,0.208
	c-0.086-0.049-0.201-0.103-0.2-0.218c-0.005-0.202,0.189-0.319,0.356-0.381c0.419-0.162,0.77-0.529,0.842-0.981
	c0.05-0.356,0.016-0.718,0.025-1.075c0.001-0.746,0-1.49,0-2.236c0.015-0.588-0.005-1.18,0.092-1.764
	c0.091-0.435,0.277-0.845,0.531-1.208L12.795,16.384z"></path>
    <g id="_x23_c49b86ff">
      <path fill="#C49C87" d="M10.606,7.814C11.09,7.6,11.625,7.519,12.15,7.517c0.744-0.025,1.484,0.045,2.225,0.092
		c1.009,0.074,2.026,0.078,3.037,0c0.514-0.023,1.027-0.088,1.543-0.089c0.711-0.034,1.447-0.027,2.121,0.229
		c0.613,0.227,1.078,0.723,1.447,1.245c0.303,0.461,0.543,1,0.529,1.561c-0.074-0.27-0.138-0.545-0.26-0.8
		c-0.223-0.486-0.562-0.912-0.957-1.27c-0.554-0.517-1.339-0.668-2.074-0.677c-1.173-0.01-2.335,0.187-3.506,0.208
		c-1.002,0.028-2-0.079-2.997-0.159c-0.596-0.042-1.196-0.079-1.791-0.001c-0.486,0.062-0.974,0.219-1.359,0.53
		C9.764,8.67,9.465,9.013,9.229,9.393c-0.239,0.373-0.368,0.8-0.463,1.229C8.757,9.988,9.025,9.377,9.394,8.871
		C9.719,8.441,10.106,8.036,10.606,7.814z"></path>
    </g>
    <g id="_x23_f4cab1ff">
      <path fill="#F4CBB2" d="M11.47,7.856c0.594-0.078,1.195-0.041,1.791,0.001c0.997,0.08,1.995,0.187,2.997,0.159
		c1.172-0.021,2.333-0.218,3.506-0.208c0.735,0.008,1.521,0.16,2.074,0.677c0.395,0.358,0.735,0.784,0.957,1.27
		c0.122,0.254,0.186,0.53,0.26,0.8c0.039,0.169,0.008,0.344,0.006,0.516c-0.035,0.822-0.209,1.669-0.689,2.354
		c-0.408,0.592-1.039,0.998-1.711,1.229c-0.986,0.342-2.04,0.414-3.076,0.453c-1.025,0.024-2.054,0.036-3.081-0.012
		c-1.084-0.058-2.182-0.177-3.207-0.557c-0.726-0.268-1.411-0.709-1.857-1.353c-0.52-0.74-0.693-1.671-0.672-2.561
		c0.095-0.429,0.224-0.856,0.463-1.229c0.236-0.38,0.535-0.723,0.881-1.006C10.496,8.076,10.983,7.919,11.47,7.856 M11.736,8.825
		c-0.4,0.125-0.699,0.459-0.886,0.823c-0.295,0.588-0.357,1.28-0.222,1.921c0.106,0.483,0.337,0.964,0.741,1.267
		c0.283,0.217,0.671,0.299,1.011,0.183c0.409-0.136,0.707-0.488,0.89-0.866c0.285-0.603,0.336-1.305,0.181-1.95
		c-0.114-0.459-0.345-0.911-0.733-1.197C12.442,8.799,12.069,8.719,11.736,8.825 M19.73,8.822c-0.41,0.123-0.715,0.466-0.902,0.838
		c-0.301,0.609-0.355,1.326-0.199,1.983c0.115,0.47,0.355,0.933,0.758,1.217c0.291,0.21,0.687,0.274,1.023,0.142
		c0.4-0.153,0.689-0.511,0.865-0.893c0.272-0.612,0.313-1.32,0.143-1.966c-0.119-0.444-0.354-0.877-0.734-1.149
		C20.414,8.797,20.055,8.723,19.73,8.822 M15.757,12.501c-0.253,0.123-0.255,0.531-0.002,0.655c0.235,0.145,0.571-0.054,0.554-0.331
		C16.319,12.554,15.99,12.362,15.757,12.501 M15.162,13.613c-0.066,0.007-0.121,0.084-0.096,0.148
		c0.094,0.304,0.366,0.54,0.675,0.604c0.438,0.104,0.929-0.172,1.059-0.605c0.038-0.107-0.114-0.201-0.194-0.12
		c-0.084,0.141-0.15,0.302-0.299,0.389c-0.304,0.217-0.777,0.11-0.951-0.222C15.303,13.734,15.278,13.594,15.162,13.613z"></path>
    </g>
    <g id="_x23_ffffffff">
      <path fill="#FFFFFF" d="M11.736,8.825c0.333-0.106,0.706-0.026,0.982,0.181c0.388,0.286,0.619,0.737,0.733,1.197
		c0.155,0.645,0.104,1.347-0.181,1.95c-0.183,0.378-0.481,0.729-0.89,0.866c-0.34,0.116-0.729,0.035-1.011-0.183
		c-0.404-0.303-0.635-0.783-0.741-1.267c-0.135-0.641-0.073-1.333,0.222-1.921C11.038,9.284,11.336,8.95,11.736,8.825 M11.954,9.56
		c-0.255,0.089-0.444,0.304-0.565,0.539c-0.197,0.388-0.238,0.845-0.153,1.268c0.064,0.305,0.203,0.605,0.44,0.813
		c0.171,0.152,0.411,0.236,0.64,0.19c0.267-0.049,0.479-0.248,0.616-0.473c0.234-0.391,0.292-0.871,0.213-1.315
		c-0.064-0.342-0.22-0.685-0.501-0.901C12.452,9.531,12.185,9.477,11.954,9.56z"></path>
      <path fill="#FFFFFF" d="M19.73,8.822c0.322-0.099,0.684-0.024,0.953,0.172c0.381,0.272,0.614,0.705,0.733,1.149
		c0.172,0.646,0.131,1.354-0.144,1.966c-0.174,0.382-0.463,0.74-0.864,0.893c-0.339,0.133-0.732,0.068-1.023-0.142
		c-0.401-0.284-0.643-0.748-0.758-1.217c-0.155-0.657-0.103-1.374,0.199-1.983C19.016,9.288,19.32,8.944,19.73,8.822 M19.654,9.557
		c-0.236,0.08-0.418,0.269-0.539,0.48c-0.197,0.348-0.26,0.764-0.213,1.158c0.039,0.339,0.166,0.678,0.406,0.926
		c0.17,0.177,0.418,0.29,0.666,0.253c0.282-0.037,0.512-0.246,0.653-0.483c0.229-0.386,0.288-0.856,0.215-1.294
		c-0.062-0.347-0.218-0.695-0.502-0.915C20.15,9.533,19.885,9.477,19.654,9.557z"></path>
      <path fill="#FFFFFF" d="M11.612,10.066c0.164-0.113,0.415,0.002,0.435,0.2c0.04,0.206-0.191,0.391-0.384,0.308
		C11.449,10.504,11.418,10.178,11.612,10.066z"></path>
      <path fill="#FFFFFF" d="M19.482,10.069c0.172-0.073,0.379,0.091,0.343,0.275c-0.019,0.186-0.261,0.286-0.405,0.168
		C19.26,10.404,19.3,10.128,19.482,10.069z"></path>
    </g>
    <g id="_x23_ac5c51ff">
      <path fill="#3C3C3B" d="M11.954,9.56c0.231-0.083,0.498-0.029,0.69,0.121c0.282,0.216,0.437,0.559,0.501,0.901
		c0.079,0.444,0.021,0.925-0.213,1.315c-0.137,0.225-0.35,0.424-0.616,0.473c-0.229,0.046-0.469-0.038-0.64-0.19
		c-0.237-0.208-0.376-0.509-0.44-0.813c-0.085-0.423-0.044-0.88,0.153-1.268C11.509,9.863,11.699,9.648,11.954,9.56 M11.612,10.066
		c-0.194,0.112-0.163,0.438,0.051,0.508c0.193,0.083,0.424-0.103,0.384-0.308C12.027,10.068,11.776,9.953,11.612,10.066z"></path>
      <path fill="#3C3C3B" d="M19.654,9.557c0.229-0.08,0.496-0.024,0.688,0.126c0.284,0.22,0.439,0.568,0.502,0.915
		c0.073,0.438,0.016,0.909-0.215,1.294c-0.143,0.237-0.371,0.446-0.654,0.483c-0.248,0.037-0.496-0.077-0.666-0.253
		c-0.24-0.248-0.365-0.587-0.406-0.926c-0.045-0.395,0.017-0.81,0.214-1.158C19.236,9.826,19.418,9.637,19.654,9.557 M19.482,10.069
		c-0.184,0.06-0.224,0.335-0.062,0.443c0.145,0.118,0.389,0.018,0.405-0.168C19.861,10.16,19.654,9.996,19.482,10.069z"></path>
      <path fill="#3C3C3B" d="M15.757,12.501c0.232-0.14,0.562,0.053,0.552,0.325c0.017,0.276-0.319,0.475-0.554,0.331
		C15.502,13.032,15.504,12.625,15.757,12.501z"></path>
      <path fill="#3C3C3B" d="M15.162,13.613c0.116-0.019,0.141,0.122,0.193,0.195c0.174,0.332,0.647,0.439,0.951,0.222
		c0.149-0.086,0.215-0.248,0.299-0.389c0.08-0.082,0.232,0.012,0.194,0.12c-0.13,0.433-0.62,0.708-1.059,0.605
		c-0.31-0.064-0.581-0.301-0.675-0.604C15.042,13.697,15.096,13.62,15.162,13.613z"></path>
    </g>
    <path fill="#FFFFFF" d="M6.766,15.525c0.115-0.059,0.293,0.027,0.293,0.164C6.993,15.896,6.597,15.68,6.766,15.525z"></path>
    <path fill="#FFFFFF" d="M7.334,15.876c0.156-0.024,0.337,0.156,0.259,0.308C7.426,16.358,7.088,15.98,7.334,15.876z"></path>
    <path fill="#E9437F" d="M5.614,16.766c0.083-0.299,0.171-0.596,0.255-0.894c0.084,0.296,0.172,0.592,0.254,0.889
	c0.03,0.113,0.03,0.249-0.045,0.345c-0.084,0.097-0.242,0.121-0.348,0.047C5.601,17.074,5.574,16.898,5.614,16.766z"></path>
    <path fill="#FFFFFF" d="M7.836,16.465c0.206-0.073,0.418,0.24,0.278,0.406C7.901,17.005,7.634,16.611,7.836,16.465z"></path>
    <path fill="#FFFFFF" d="M8.358,17.204c0.205-0.149,0.521,0.196,0.352,0.387C8.504,17.715,8.216,17.396,8.358,17.204z"></path>
    <path fill="#FFFFFF" d="M9.042,17.855c0.169-0.119,0.475,0.045,0.439,0.259C9.358,18.375,8.851,18.088,9.042,17.855z"></path>
    <path fill="#FFFFFF" d="M11.79,18.089c0.016-0.153,0.192-0.185,0.317-0.19c-0.018,0.125-0.033,0.25-0.042,0.377
	C11.958,18.252,11.786,18.234,11.79,18.089z"></path>
    <path fill="#FFFFFF" d="M9.972,18.136c0.154-0.069,0.418,0.007,0.417,0.204c-0.068,0.198-0.37,0.17-0.483,0.026
	C9.836,18.291,9.88,18.167,9.972,18.136z"></path>
    <path fill="#FFFFFF" d="M10.974,18.157c0.137-0.06,0.362-0.026,0.398,0.143c-0.021,0.243-0.441,0.261-0.52,0.044
	C10.833,18.26,10.902,18.188,10.974,18.157z"></path>
    <path fill="#010202" d="M12.795,16.384c0.163-0.224,0.365-0.42,0.593-0.577c0.188,0.008,0.375,0.007,0.562-0.003
	c0.44,0.027,0.881,0.025,1.321,0.032c1.105,0.002,2.209,0.007,3.315-0.041c0.652,0.446,1.091,1.188,1.184,1.969
	c-0.211-0.356-0.398-0.742-0.725-1.014c-0.597-0.527-1.425-0.646-2.191-0.685c-0.771-0.024-1.542-0.012-2.312,0.025
	C13.952,16.124,13.353,16.173,12.795,16.384z"></path>
    <path fill="#010202" d="M12.164,17.65c0.024-0.015,0.073-0.043,0.097-0.058c-0.098,0.583-0.078,1.175-0.092,1.765l-0.079,0.026
	c-0.049-0.366-0.046-0.739-0.025-1.11c0.009-0.125,0.024-0.25,0.042-0.375C12.122,17.814,12.141,17.732,12.164,17.65z"></path>
  </g>
  <g id="sprout" data-iconmelon="Iconmelon:cf9e86cbfb7713a1ebee5168bbe803f5">
    <g>
      <g id="_x23_ffffffff">
        <path fill="#3FB8AF" d="M14.236,26.392c-0.53-2.039-0.833-5.134-0.716-7.112c-2.607-0.077-5.164,0.449-6.09-2.97
			c2.658-1.592,4.27,0.46,6.202,1.616c0.132-1.256,0.415-3.201,0.56-4.451c-2.722-0.998-5.639-2.261-7.097-4.932
			C5.499,5.973,5.909,2.829,6.401,0c2.021,0.404,4.218,0.733,5.765,2.229c2.084,1.818,3.684,5.583,3.404,8.7
			c0.319-2.091,2.013-4.47,3.591-5.278c1.648-0.922,3.599-0.783,5.424-0.89c-0.404,1.755-0.676,3.662-1.9,5.063
			c-1.534,1.9-4.446,3.146-6.902,3.64c-1.218,4.223-1.093,8.59,0,12.807"></path>
      </g>
      <path fill="#3B3C3B" d="M13.456,30.383c0,0-2.221-0.154-2.767-1.292c-0.559-1.171,1.028-2.084,1.721-0.893
		c-0.465-1.304,1.217-1.952,1.775-0.781C14.731,28.556,13.456,30.383,13.456,30.383z"></path>
      <g>
        <g>
          <path fill="#3B3C3B" d="M16.938,28.471l-0.004-0.091c-0.015-0.321,0.116-0.796,0.296-1.062l0.238-0.352
				c0.388-0.568,0.142-1.414-0.547-1.88c-0.691-0.473-1.561-0.384-1.948,0.185c-0.004,0.004-0.238,0.357-0.238,0.357
				c-0.181,0.263-0.575,0.565-0.875,0.666l-0.093,0.029c-0.298,0.106-0.333,0.34-0.063,0.516l2.78,1.885
				C16.75,28.905,16.953,28.787,16.938,28.471z"></path>
          <path fill="#3B3C3B" d="M14.674,28.408c0.314,0.209,0.689,0.203,0.896,0.002l-1.233-0.833
				C14.225,27.841,14.362,28.196,14.674,28.408z"></path>
        </g>
      </g>
      <path fill="#3B3C3B" d="M12.391,31.798c-0.325,0.006-0.495-0.115-0.661-0.266c-0.141,0.01-0.321,0.091-0.43,0.146
		c-0.034,0.019-0.066,0.039-0.104,0.057c0.059-0.166,0.145-0.298,0.271-0.396c0.028-0.021,0.056-0.053,0.091-0.064c0,0,0,0,0-0.003
		c-0.18,0.003-0.33,0.084-0.477,0.13l0,0c0.076-0.12,0.178-0.24,0.285-0.327c0.045-0.037,0.086-0.07,0.132-0.107
		c-0.002-0.192,0.002-0.378,0.041-0.541c0.209-0.949,0.764-1.593,1.642-1.868c0.317-0.103,0.825-0.141,1.186-0.053
		c0.18,0.045,0.343,0.096,0.498,0.161c0.083,0.036,0.16,0.078,0.233,0.125c0.025,0.015,0.051,0.03,0.074,0.047
		c-0.083-0.003-0.176-0.026-0.266-0.01c-0.083,0.012-0.163,0.01-0.239,0.024c-0.19,0.042-0.36,0.098-0.504,0.181
		c-0.07,0.044-0.176,0.092-0.225,0.151c0.095-0.002,0.178,0.021,0.249,0.046c0.269,0.097,0.426,0.273,0.53,0.542
		c-0.082-0.008-0.322-0.033-0.375,0.015c0.104,0.005,0.206,0.065,0.277,0.111c0.217,0.138,0.396,0.368,0.393,0.724
		c-0.029-0.013-0.057-0.027-0.086-0.041c-0.051-0.022-0.11-0.038-0.174-0.051c-0.028-0.005-0.083-0.021-0.113-0.01
		c0,0,0.002,0,0.005,0c0.04,0.051,0.108,0.084,0.152,0.135c0.14,0.178,0.271,0.447,0.187,0.767c-0.02,0.083-0.054,0.154-0.087,0.221
		c0,0-0.002,0-0.002-0.003c-0.018-0.033-0.055-0.06-0.079-0.089c-0.069-0.088-0.16-0.167-0.249-0.238
		c-0.304-0.241-0.582-0.39-1.025-0.497c-0.11-0.028-0.241-0.052-0.376-0.052c0.039,0.109,0.026,0.292-0.002,0.399
		c-0.077,0.269-0.236,0.461-0.475,0.567c-0.056,0.023-0.119,0.042-0.185,0.057C12.46,31.789,12.427,31.791,12.391,31.798z"></path>
      <path fill="#3B3C3B" d="M16.101,26.797c-1.006,0-1.828,0.662-1.828,1.482c0,0.44,0.239,0.835,0.614,1.107
		c0.039,0.111,0.021,0.228-0.071,0.385c-0.096,0.175-0.284,0.323-0.543,0.44c0.65-0.047,1.207-0.213,1.526-0.474
		c0.096,0.012,0.197,0.023,0.301,0.023c1.01,0,1.825-0.663,1.825-1.482C17.926,27.459,17.111,26.797,16.101,26.797"></path>
      <path fill="#3B3C3B" d="M9.913,28.865c0,0-1.462-1.679-1.043-2.868c0.433-1.224,2.201-0.748,1.848,0.585
		c0.593-1.251,2.241-0.521,1.808,0.702C12.105,28.476,9.913,28.865,9.913,28.865z"></path>
      <path fill="#3B3C3B" d="M10.549,30.617c0.711-0.71,0.824-1.76,0.244-2.341c-0.311-0.311-0.759-0.42-1.217-0.349
		c-0.106-0.051-0.175-0.146-0.222-0.322c-0.056-0.19-0.028-0.429,0.073-0.695C9,27.403,8.724,27.914,8.683,28.325
		c-0.077,0.059-0.156,0.123-0.229,0.195c-0.714,0.716-0.822,1.76-0.242,2.34C8.791,31.439,9.835,31.332,10.549,30.617"></path>
      <path fill="#3B3C3B" d="M5.516,31.311l0.203-0.204c0.013-0.012,0.025-0.019,0.035-0.026c0.048,0.023,0.091,0.038,0.138,0.055
		c0.002,0.013,0.004,0.028,0.004,0.044l0.001,0.288c0,0.136,0.11,0.247,0.247,0.247h0.492c0.133-0.002,0.246-0.114,0.246-0.247
		l-0.001-0.285c0.001-0.016,0.001-0.034,0.005-0.044C6.93,31.12,6.976,31.1,7.021,31.076c0.009,0.009,0.021,0.019,0.036,0.032
		l0.201,0.2c0.097,0.098,0.253,0.099,0.349,0.004l0.348-0.348c0.099-0.099,0.096-0.254-0.001-0.352l-0.201-0.201
		c-0.014-0.013-0.025-0.024-0.031-0.036c0.02-0.045,0.04-0.091,0.059-0.135c0.008-0.001,0.026-0.001,0.041-0.001l0.289-0.002
		c0.135-0.002,0.244-0.111,0.243-0.244L8.356,29.5c0-0.136-0.111-0.247-0.247-0.247l-0.29,0.002
		c-0.017,0.001-0.031-0.003-0.044-0.003c-0.019-0.047-0.033-0.089-0.056-0.138c0.009-0.009,0.016-0.023,0.026-0.033l0.204-0.204
		c0.095-0.095,0.097-0.251,0.002-0.346l-0.349-0.349c-0.095-0.095-0.252-0.099-0.35-0.002l-0.204,0.205
		c-0.01,0.01-0.021,0.02-0.033,0.025c-0.045-0.02-0.09-0.036-0.138-0.057c-0.002-0.011-0.003-0.026-0.002-0.045v-0.291
		c0.003-0.132-0.108-0.242-0.245-0.244l-0.494,0.004c-0.136,0-0.245,0.108-0.243,0.243L5.892,28.31c0.002,0.018,0,0.034-0.001,0.041
		c-0.048,0.018-0.094,0.041-0.135,0.061c-0.013-0.009-0.024-0.02-0.035-0.029l-0.204-0.205c-0.095-0.095-0.251-0.099-0.35,0
		l-0.348,0.348c-0.095,0.097-0.094,0.253,0.001,0.348l0.205,0.205c0.011,0.01,0.02,0.023,0.03,0.033
		c-0.023,0.046-0.042,0.094-0.061,0.137c-0.011,0.004-0.024,0.004-0.044,0.005l-0.285-0.001c-0.137,0-0.247,0.109-0.246,0.245
		l0,0.492c0,0.137,0.111,0.248,0.244,0.244l0.289,0.003c0.017,0.001,0.031,0.001,0.043,0.003c0.021,0.049,0.037,0.093,0.056,0.138
		c-0.005,0.012-0.015,0.021-0.027,0.034l-0.204,0.203c-0.096,0.097-0.094,0.257,0,0.352l0.349,0.348
		C5.263,31.407,5.42,31.406,5.516,31.311z M5.862,29.219c0.288-0.287,0.753-0.286,1.044,0.004c0.288,0.287,0.29,0.755,0.001,1.042
		c-0.288,0.288-0.756,0.287-1.043,0C5.574,29.974,5.572,29.509,5.862,29.219z"></path>
      <path fill="#3B3C3B" d="M19.026,26.213c0,0,1.679-1.463,2.869-1.044c1.223,0.433,0.746,2.2-0.586,1.848
		c1.251,0.593,0.521,2.24-0.702,1.808C19.416,28.405,19.026,26.213,19.026,26.213z"></path>
      <path fill="#3B3C3B" d="M21.862,31.289c0.712-0.71,0.824-1.76,0.244-2.34c-0.312-0.312-0.76-0.421-1.218-0.35
		c-0.106-0.051-0.176-0.146-0.223-0.321c-0.056-0.191-0.027-0.43,0.073-0.696c-0.427,0.494-0.702,1.004-0.744,1.415
		c-0.076,0.059-0.155,0.123-0.229,0.196c-0.714,0.715-0.822,1.76-0.242,2.339C20.103,32.112,21.147,32.005,21.862,31.289"></path>
      <path fill="#3B3C3B" d="M15.889,30.679l0.203-0.203c0.013-0.013,0.025-0.019,0.034-0.027c0.049,0.023,0.092,0.038,0.138,0.056
		c0.002,0.013,0.004,0.028,0.004,0.043l0.001,0.289c0,0.135,0.11,0.246,0.247,0.246h0.492c0.134-0.001,0.246-0.113,0.246-0.246
		l-0.002-0.285c0.002-0.017,0.002-0.034,0.005-0.045c0.045-0.017,0.092-0.038,0.137-0.062c0.009,0.009,0.022,0.019,0.035,0.032
		l0.201,0.201c0.098,0.098,0.254,0.099,0.35,0.004l0.348-0.348c0.099-0.099,0.096-0.254-0.001-0.352l-0.201-0.201
		c-0.014-0.014-0.025-0.024-0.031-0.037c0.02-0.044,0.04-0.09,0.06-0.135c0.009-0.001,0.026-0.001,0.04-0.001l0.29-0.001
		c0.135-0.003,0.244-0.112,0.243-0.244l0.002-0.494c0-0.136-0.11-0.247-0.246-0.247l-0.29,0.001
		c-0.016,0.001-0.03-0.002-0.044-0.002c-0.019-0.047-0.033-0.089-0.057-0.139c0.01-0.009,0.016-0.023,0.026-0.033l0.204-0.203
		c0.095-0.095,0.096-0.252,0.001-0.347l-0.348-0.348c-0.095-0.095-0.253-0.099-0.351-0.003l-0.203,0.205
		c-0.01,0.01-0.021,0.02-0.033,0.025c-0.045-0.02-0.09-0.035-0.138-0.057c-0.003-0.011-0.003-0.025-0.003-0.044v-0.291
		c0.004-0.132-0.107-0.243-0.244-0.244l-0.494,0.004c-0.137,0-0.245,0.108-0.243,0.242l-0.002,0.289
		c0.002,0.018,0,0.033-0.001,0.041c-0.048,0.017-0.094,0.04-0.135,0.06c-0.014-0.008-0.024-0.02-0.035-0.029l-0.204-0.204
		c-0.095-0.096-0.251-0.099-0.35,0l-0.348,0.348c-0.095,0.096-0.093,0.253,0.002,0.348l0.205,0.204
		c0.011,0.01,0.02,0.023,0.03,0.033c-0.023,0.046-0.042,0.094-0.061,0.138c-0.011,0.003-0.024,0.003-0.044,0.005l-0.285-0.002
		c-0.137,0-0.247,0.11-0.246,0.246l0,0.492c0,0.137,0.111,0.247,0.244,0.244l0.289,0.002c0.016,0.001,0.031,0.001,0.043,0.004
		c0.02,0.048,0.037,0.093,0.056,0.137c-0.005,0.013-0.015,0.022-0.028,0.034l-0.203,0.204c-0.096,0.096-0.094,0.256,0,0.352
		l0.348,0.348C15.636,30.776,15.793,30.775,15.889,30.679z M16.235,28.588c0.288-0.288,0.754-0.286,1.044,0.003
		c0.287,0.288,0.289,0.755,0.001,1.042c-0.288,0.289-0.755,0.288-1.042,0C15.947,29.342,15.945,28.877,16.235,28.588z"></path>
      <path fill="#3B3C3B" d="M24.767,32c0,0-1.345-1.775-0.844-2.934c0.515-1.191,2.246-0.595,1.803,0.71
		c0.677-1.206,2.271-0.365,1.756,0.825C26.981,31.762,24.767,32,24.767,32z"></path>
      <path fill="#3B3C3B" d="M19.507,24.079c-0.009-0.005-0.019-0.011-0.025-0.015c-0.007-0.005-0.019-0.009-0.025-0.013
		c-0.752-0.423-1.714-0.151-2.134,0.597c-0.418,0.748,0.075,3.126,0.075,3.126s2.286-0.811,2.708-1.559
		C20.524,25.47,20.263,24.506,19.507,24.079z M19.397,25.847c-0.217,0.384-0.704,0.52-1.088,0.303
		c-0.387-0.215-0.522-0.7-0.305-1.087c0.214-0.387,0.699-0.522,1.086-0.305C19.474,24.975,19.61,25.462,19.397,25.847z"></path>
      <path fill="#3B3C3B" d="M17.162,29.262c0,0,0.153-2.222,1.291-2.767c1.17-0.56,2.082,1.027,0.893,1.72
		c1.302-0.465,1.95,1.216,0.78,1.775C18.988,30.536,17.162,29.262,17.162,29.262z"></path>
      <g id="_x23_ffffffff_1_">
        <path fill="#FF3D7F" d="M15.783,21.595c1.335-0.798,2.451-2.217,4.288-1.116c-0.641,2.363-2.34,2-4.142,2.053L15.783,21.595z"></path>
      </g>
    </g>
  </g>
  <g id="friends" data-iconmelon="Iconmelon:73362bf38515940f9653c3adf00e3989">
    <g>
      <path opacity="0.3" fill="#F39C9E" d="M18.662,5.615l-2.703,2.081l-2.82-2.081l0.778,2.8c0,0-3.189-0.078-2.956,0
		c0.233,0.078,2.334,1.931,2.334,1.931l-1.264,3.086l3.518-0.875l1.72,3.217l0.635-3.909l2.509,0.194l-2.101-2.063l2.887-1.736
		l-3.372-0.059L18.662,5.615z"></path>
      <path fill="#4B3041" d="M12.085,14.999c-0.054-0.86,0.06-1.733-0.1-2.586c-0.147-0.817-0.534-1.581-1.079-2.205
		c0.126,0.003,0.254,0.007,0.383,0.01c-0.761-1.144-2.037-1.874-3.374-2.114C7.991,7.695,8.174,7.32,8.396,6.973
		c-0.38,0.022-0.709,0.223-0.98,0.477C7.171,6.806,6.559,6.393,5.923,6.197c0.331,0.417,0.459,0.952,0.46,1.477
		c-0.367-0.14-0.767-0.146-1.151-0.09C5.451,7.72,5.65,7.887,5.812,8.089c-1.37,0.227-2.679,0.963-3.46,2.13
		c0.13-0.004,0.26-0.008,0.391-0.011C2.055,10.989,1.637,12,1.589,13.041c-0.019,0.592-0.004,1.185-0.007,1.778
		c-0.001,0.103-0.006,0.209-0.056,0.302c-0.776,1.405-1.352,2.948-1.499,4.554c-0.068,0.919-0.036,1.904,0.433,2.726
		c0.218,0.368,0.608,0.724,1.069,0.641c0.19-0.031,0.259-0.229,0.344-0.375c0.069-0.054,0.135-0.113,0.201-0.173
		c0.027-0.13-0.046-0.253-0.096-0.367c-0.137-0.268-0.265-0.542-0.363-0.827c-0.548-1.508-0.511-3.185-0.035-4.707
		c0.002,0.722,0.006,1.445-0.01,2.167c0.009,0.798-0.031,1.612,0.202,2.386c0.016-0.015,0.03-0.021,0.043-0.019l-0.043,0.019
		c0.118,0.339,0.371,1.238,1.197,1.983c0.275,0.267,0.583,0.497,0.912,0.696c-0.042-0.221-0.07-0.443-0.089-0.667
		c0.358,0.212,0.737,0.384,1.128,0.525c0.085,0.015,0.091,0.11,0.108,0.178c0.096,0.543,0.221,1.082,0.393,1.607
		c-0.325-0.203-0.742-0.279-1.098-0.114c-0.353,0.143-0.579,0.485-0.651,0.85c0.7,0.235,1.463,0.237,2.171,0.035
		c-0.157-0.793-0.291-1.591-0.349-2.397c0.836,0.184,1.703,0.176,2.545,0.033c-0.071,0.794-0.19,1.582-0.353,2.363
		c0.708,0.205,1.472,0.2,2.172-0.034c-0.075-0.359-0.294-0.703-0.644-0.846c-0.357-0.169-0.777-0.094-1.103,0.108
		c0.179-0.559,0.314-1.132,0.409-1.711c0.465-0.153,0.917-0.348,1.339-0.597c-0.02,0.223-0.048,0.445-0.09,0.666
		c0.686-0.41,1.278-0.984,1.678-1.678c0.413-0.708,0.618-1.525,0.623-2.343c0.038-1.054-0.024-2.108,0.013-3.163L12.085,14.999z"></path>
      <g>
        <path fill="#4B3041" d="M12.105,15.28c1.404-1.229,2.355-3.006,2.464-4.881c0.016-0.135,0.005-0.295,0.111-0.397
			c0.077-0.043,0.171-0.027,0.258-0.038C15.07,9.88,15.21,9.754,15.38,9.797c0.288,0.075,0.487,0.345,0.566,0.621
			c0.14,0.495,0.045,1.023-0.12,1.5c-0.255,0.719-0.674,1.37-1.152,1.96c-0.711,0.864-1.572,1.599-2.497,2.225
			c-0.292,0.216-0.628,0.365-0.914,0.586"></path>
      </g>
      <g>
        <path fill="#4B3041" d="M31.973,19.675c-0.147-1.606-0.724-3.149-1.499-4.554c-0.051-0.093-0.056-0.2-0.057-0.302
			c-0.002-0.593,0.013-1.186-0.007-1.778c-0.047-1.04-0.466-2.051-1.154-2.832c0.132,0.003,0.262,0.007,0.392,0.011
			c-0.781-1.167-2.091-1.903-3.46-2.13c0.162-0.202,0.361-0.369,0.581-0.505c-0.386-0.055-0.784-0.05-1.152,0.09
			c0.002-0.525,0.13-1.06,0.461-1.477c-0.636,0.195-1.248,0.609-1.494,1.252c-0.271-0.254-0.6-0.454-0.979-0.477
			c0.223,0.348,0.405,0.723,0.481,1.131c-1.338,0.241-2.613,0.97-3.374,2.114c0.128-0.003,0.256-0.007,0.383-0.01
			c-0.545,0.624-0.933,1.388-1.078,2.205c-0.16,0.853-0.047,1.726-0.101,2.586l0.002,1.643c0.037,1.054-0.025,2.109,0.013,3.163
			c0.005,0.817,0.211,1.635,0.623,2.343c0.399,0.693,0.991,1.268,1.678,1.678c-0.043-0.221-0.07-0.443-0.091-0.666
			c0.423,0.249,0.874,0.443,1.34,0.597c0.095,0.579,0.229,1.152,0.408,1.711c-0.325-0.202-0.745-0.277-1.103-0.108
			c-0.349,0.143-0.569,0.486-0.644,0.846c0.7,0.234,1.465,0.239,2.173,0.034c-0.163-0.781-0.282-1.569-0.353-2.363
			c0.842,0.143,1.708,0.15,2.544-0.033c-0.058,0.807-0.191,1.604-0.349,2.397c0.709,0.202,1.472,0.2,2.171-0.035
			c-0.072-0.364-0.298-0.707-0.65-0.85c-0.356-0.165-0.773-0.089-1.098,0.114c0.172-0.525,0.297-1.064,0.393-1.607
			c0.017-0.067,0.022-0.163,0.108-0.178c0.391-0.142,0.77-0.313,1.128-0.525c-0.019,0.224-0.047,0.446-0.09,0.667
			c0.328-0.2,0.637-0.43,0.912-0.696c0.826-0.745,1.079-1.645,1.197-1.983l-0.043-0.019c0.013-0.002,0.026,0.004,0.043,0.019
			c0.232-0.773,0.193-1.588,0.202-2.386c-0.017-0.722-0.013-1.444-0.011-2.167c0.476,1.522,0.513,3.199-0.035,4.707
			c-0.098,0.285-0.226,0.56-0.362,0.827c-0.051,0.114-0.123,0.237-0.097,0.367c0.066,0.06,0.132,0.119,0.201,0.173
			c0.084,0.146,0.154,0.344,0.344,0.375c0.46,0.083,0.852-0.272,1.069-0.641C32.009,21.579,32.041,20.594,31.973,19.675z"></path>
        <g>
          <path fill="#4B3041" d="M19.895,15.28c-1.404-1.229-2.355-3.006-2.464-4.881c-0.016-0.135-0.005-0.295-0.111-0.397
				c-0.077-0.043-0.171-0.027-0.258-0.038C16.93,9.88,16.79,9.754,16.62,9.797c-0.288,0.075-0.487,0.345-0.567,0.621
				c-0.14,0.495-0.044,1.023,0.12,1.5c0.255,0.719,0.674,1.37,1.152,1.96c0.712,0.864,1.571,1.599,2.497,2.225
				c0.291,0.216,0.628,0.365,0.914,0.586"></path>
        </g>
        <g>
          <circle fill="#E9437F" cx="22.939" cy="12.2" r="0.998"></circle>
          <path fill="#4B3041" d="M23.048,11.896c-0.228-0.09-0.489,0.139-0.425,0.376c0.041,0.233,0.357,0.333,0.53,0.176
				C23.343,12.3,23.279,11.961,23.048,11.896z"></path>
        </g>
        <g>
          <circle fill="#E9437F" cx="27.524" cy="12.2" r="0.998"></circle>
          <path fill="#4B3041" d="M27.632,11.896c-0.228-0.09-0.488,0.139-0.424,0.376c0.041,0.233,0.357,0.333,0.529,0.176
				C27.928,12.3,27.864,11.961,27.632,11.896z"></path>
        </g>
        <g>
          <path fill="#E9437F" d="M28.406,14.662c-2.031,0.673-4.272,0.675-6.305,0.004c-0.081,0.898,0.152,1.87,0.823,2.506
				c0.16,0.148,0.418,0.364,0.653,0.431c0.302,0.121,0.617,0.207,0.939,0.259v-0.266c0-0.153,0.124-0.277,0.277-0.277
				c0.152,0,0.276,0.124,0.276,0.277v0.321c0.053,0.002,0.104,0.004,0.157,0.004v-0.466c0-0.153,0.123-0.277,0.276-0.277
				s0.277,0.124,0.277,0.277v0.435c0.384-0.044,0.762-0.136,1.121-0.276v0.001c0.236-0.064,0.509-0.287,0.67-0.435l-0.003-0.004
				c0.001,0.002,0.003,0.003,0.004,0.004C28.252,16.542,28.491,15.565,28.406,14.662z"></path>
          <path fill="#FFFFFF" d="M24.795,17.318c-0.153,0-0.277,0.124-0.277,0.277v0.266c0.184,0.03,0.368,0.049,0.554,0.056v-0.321
				C25.071,17.442,24.947,17.318,24.795,17.318z"></path>
          <path fill="#FFFFFF" d="M25.505,17.178c-0.153,0-0.276,0.124-0.276,0.277v0.466c0.185,0.001,0.37-0.01,0.554-0.031v-0.435
				C25.782,17.302,25.658,17.178,25.505,17.178z"></path>
        </g>
      </g>
      <path fill="#FFFFFF" d="M7.296,12.302c0.183-0.396,0.657-0.658,1.193-0.62c0.514,0.036,0.932,0.339,1.076,0.732L9.67,12.42
		c-0.144-0.44-0.605-0.783-1.174-0.823c-0.593-0.042-1.116,0.256-1.303,0.701L7.296,12.302z"></path>
      <path fill="#FFFFFF" d="M3.756,12.346c0.159-0.403,0.627-0.695,1.181-0.695c0.532,0,0.983,0.27,1.16,0.647l0.108-0.002
		c-0.18-0.425-0.679-0.73-1.268-0.73c-0.613,0-1.128,0.332-1.288,0.783L3.756,12.346z"></path>
      <g>
        <path fill="#FFFFFF" d="M5.219,16.07c-0.262,0.152-0.505,0.337-0.716,0.555c0.024,0.061,0.549,0.383,0.658,0.429
			C5.135,16.726,5.156,16.395,5.219,16.07z"></path>
        <path fill="#FFFFFF" d="M8.441,16.07c0.062,0.32,0.081,0.647,0.058,0.972c0.089-0.018,0.569-0.344,0.653-0.422l-0.015-0.018
			c0.005,0.005,0.01,0.01,0.016,0.015C8.94,16.404,8.7,16.222,8.441,16.07z"></path>
        <polygon fill="#E9437F" points="8.499,17.048 8.499,17.042 8.499,17.042 		"></polygon>
        <path fill="#E9437F" d="M8.441,16.07c0.258,0.152,0.499,0.334,0.711,0.547c0.67-0.636,0.904-1.607,0.823-2.505
			c-2.032,0.671-4.273,0.669-6.305-0.004c-0.085,0.904,0.154,1.881,0.832,2.519c0.211-0.218,0.454-0.403,0.716-0.555
			c-0.062,0.324-0.083,0.655-0.058,0.984c1.057,0.418,2.283,0.419,3.338-0.007c0-0.002,0-0.004,0-0.006l0,0
			C8.522,16.717,8.503,16.39,8.441,16.07z"></path>
      </g>
    </g>
  </g>
  <g id="www" data-iconmelon="Smallicons:09a835db12544e840577e1dbb275f7a7">
    <path fill="#51BBA8" d="M11.992 32s-1.059-3.047-4-3c.081 0 4-1 4-1s-.877-3-1-3c-.062.029 3.53.578 4 3 .083-.041 2-2 2-2v6h-5z"></path>
    <path fill="#D07C40" d="M15.992 0c1.104 0 2 .896 2 2v30h-4v-30c0-1.103.895-2 2-2z"></path>
    <path fill="#F1CD6E" d="M-.008 6h29l3 5.973-3 6.027h-29l3-6.006-3-5.994z"></path>
    <path fill="#C4A659" d="M11.439 9.987c-.276 0-.457.176-.536.42l-.654 2.021h-.016l-.661-1.978c-.095-.287-.245-.463-.575-.463-.331 0-.481.176-.575.463l-.662 1.978h-.016l-.654-2.021c-.079-.244-.26-.42-.536-.42-.33 0-.567.191-.567.428 0 .154.04.285.119.498l.961 2.539c.118.309.315.537.686.537.347 0 .552-.187.654-.494l.582-1.707h.017l.583 1.707c.103.309.307.494.653.494.371 0 .567-.229.686-.537l.97-2.553c.062-.162.11-.279.11-.396-.001-.325-.238-.516-.569-.516zm7 0c-.276 0-.457.176-.537.42l-.653 2.021h-.017l-.66-1.978c-.095-.287-.244-.463-.575-.463s-.481.176-.575.463l-.662 1.978h-.016l-.654-2.021c-.079-.244-.26-.42-.536-.42-.33 0-.566.191-.566.428 0 .154.039.285.118.498l.961 2.539c.118.309.315.537.686.537.347 0 .552-.187.653-.494l.583-1.707h.017l.583 1.707c.103.309.308.494.653.494.371 0 .566-.229.686-.537l.971-2.553c.062-.162.109-.279.109-.396-.001-.325-.238-.516-.569-.516zm7 0c-.276 0-.457.176-.537.42l-.653 2.021h-.017l-.66-1.978c-.096-.287-.245-.463-.575-.463-.331 0-.481.176-.575.463l-.662 1.978h-.016l-.654-2.021c-.078-.244-.26-.42-.535-.42-.33 0-.566.191-.566.428 0 .154.039.285.117.498l.961 2.539c.119.309.315.537.687.537.347 0 .552-.187.654-.494l.581-1.707h.018l.583 1.707c.103.309.308.494.653.494.371 0 .566-.229.686-.537l.971-2.553c.062-.162.109-.279.109-.396-.002-.325-.239-.516-.57-.516z"></path>
  </g>
  <g id="rocket" data-iconmelon="Smallicons:7348d307519be212c93cc26177661982">
    <path fill="#EFC75E" d="M9.627 22.319c1.495 1.489 1.945 3.938.451 5.428-1.495 1.489-6.001 3.148-7.496 1.659-1.494-1.489.172-5.979 1.666-7.468 1.495-1.489 3.885-1.109 5.379.381z"></path>
    <path fill="#E2574C" d="M23.432 19.008c2.251 4.667-3.242 15.53-5.782 12.456-1.03-1.246-.962-3.234-3.651-5.794-.004.016.979.174 2.13-.868 2.656-2.046 7.303-5.777 7.303-5.794z"></path>
    <path fill="#E2574C" d="M13.973 8.556c-5.045-2.286-16.73 3.171-13.4 5.738 1.35 1.041 3.492.984 6.267 3.699-.017.004-.192-.984.926-2.135 2.189-2.658 6.188-7.302 6.207-7.302z"></path>
    <path fill="#CF5349" d="M11.751 8.038l-.218-.011c-1.107 1.352-3.812 4.685-5.461 6.794-.676.734-.859 1.401-.898 1.795.323.222.656.478 1 .772.084-.398.305-.953.858-1.554 2.105-2.694 5.948-7.404 5.966-7.403-.377-.18-.801-.303-1.247-.393z"></path>
    <path fill="#CF5349" d="M23.463 19.082c-.658.554-4.828 3.973-7.306 5.924-.819.758-1.546.9-1.909.914.356.358.664.705.926 1.04.326.005 1.111-.098 1.997-.917 2.074-1.634 5.322-4.285 6.715-5.436-.075-.552-.213-1.067-.423-1.525z"></path>
    <path fill="#D7B354" d="M6.089 21.038c.208.932.847 2.043 1.842 3.036.99.988 2.097 1.624 3.028 1.836.158-1.252-.36-2.623-1.332-3.591-.967-.964-2.307-1.452-3.538-1.281z"></path>
    <path fill="#EBEBEB" d="M31.814.16c.752.711-.355 11.267-7.57 18.434-4.467 4.438-7.43 6.156-8.139 6.771-1.961.889-3.262 1.367-7.148-2.495-3.877-3.852-3.131-4.92-2.271-6.765.638-.716 2.405-3.691 6.873-8.13 7.212-7.166 17.468-8.513 18.255-7.815z"></path>
    <path fill="#324D5B" d="M22.795 9.163c1.555 1.558 1.555 4.084 0 5.643-1.556 1.558-4.077 1.558-5.633 0-1.555-1.559-1.555-4.085 0-5.643 1.556-1.559 4.077-1.559 5.633 0z"></path>
    <path fill="#CCD0D2" d="M21.4 10.577c.784.779.784 2.042 0 2.821-.783.779-2.055.779-2.84 0-.783-.779-.783-2.042 0-2.821.786-.779 2.057-.779 2.84 0z"></path>
  </g>
  <g id="map2" data-iconmelon="Smallicons:c26d0902e140224b53d0c1907eeabd62">
    <path fill="#26A6D1" d="M-.042 0l7.971 3 8.035-3 7.995 3 8-3v29l-8.02 3-8.005-3-7.991 3-7.984-3v-29z"></path>
    <polygon fill="#2295BC" points="7.958,31.987 15.934,28.993 15.958,29.002 15.958,-0.005 7.958,2.982"></polygon>
    <polygon fill="#2295BC" points="23.959,2.993 23.959,31.985 31.959,28.993 31.959,-0.007"></polygon>
    <path fill="#EFC75E" d="M23.959 2.993l-7.995-3-3.077 1.148c-5.179 5.964-3.245 10.977 3.62 17.196 5.791 5.245 11.777 8.315 15.451 5.655v-24l-7.999 3.001z"></path>
    <path fill="#3DB39E" d="M31.959-.007l-8 3-7.995-3-.011.004c-7.127 6.041-3.635 9.497 2.592 15.229 5.029 4.631 9.055 7.32 13.414 4.768-.045-1.996 0-19.99 0-20.001z"></path>
    <path fill="#D7B354" d="M23.959 2.993v20.655c3.104 1.519 5.922 1.85 8 .345v-24l-8 3z"></path>
    <path fill="#D7B354" d="M15.958-.005l-1.684.629-1.387.518c-5.035 5.797-3.333 10.699 3.071 16.68v-17.827z"></path>
    <path fill="#37A18E" d="M31.959-.007l-8 3v16.511c2.749 1.64 5.312 2.063 8 .489-.045-1.995 0-19.989 0-20z"></path>
    <path fill="#37A18E" d="M15.958-.005l-.003.001-.002.001c-6.06 5.136-4.441 8.404.005 12.79v-12.792z"></path>
  </g>
  <g id="heart" data-iconmelon="Happy holidays:21568f5e7dc033f7562be40d58b53ca9">
    <g>
      <path fill="#B65041" d="M29.376,5.117c-3.111-2.854-8.153-2.854-11.263,0l-2.056,1.886v21.968l13.318-12.223
		C32.875,13.536,32.875,8.329,29.376,5.117z"></path>
      <path fill="#DC7A6C" d="M15.999,7.056l-2.111-1.939c-3.11-2.854-8.153-2.854-11.264,0c-3.499,3.212-3.499,8.419,0,11.63L16,29.023
		l0.058-0.053V7.003L15.999,7.056z"></path>
    </g>
  </g>
</svg>